HIERARCHY
ROOT root
{
	OFFSET 0.000000 0.000000 0.000000
	CHANNELS 6 Xposition Yposition Zposition Xrotation Yrotation Zrotation
	JOINT lhipjoint
	{
		OFFSET 1.402518 -1.714242 0.591231
		CHANNELS 3 Xrotation Yrotation Zrotation
		JOINT lfemur
		{
			OFFSET 2.500710 -6.870650 0.000000
			CHANNELS 3 Xrotation Yrotation Zrotation
			JOINT ltibia
			{
				OFFSET 2.508344 -6.891624 0.000000
				CHANNELS 3 Xrotation Yrotation Zrotation
				JOINT lfoot
				{
					OFFSET 0.215284 -0.591487 1.644481
					CHANNELS 3 Xrotation Yrotation Zrotation
					JOINT ltoes
					{
						OFFSET 0.000000 -0.000000 0.879206
						CHANNELS 3 Xrotation Yrotation Zrotation
						End Site
						{
							OFFSET 0.000000 0.000000 0.000000
						}
					}
				}
			}
		}
	}
	JOINT rhipjoint
	{
		OFFSET -1.536508 -1.714241 0.591231
		CHANNELS 3 Xrotation Yrotation Zrotation
		JOINT rfemur
		{
			OFFSET -2.457834 -6.752850 0.000000
			CHANNELS 3 Xrotation Yrotation Zrotation
			JOINT rtibia
			{
				OFFSET -2.519206 -6.921469 0.000000
				CHANNELS 3 Xrotation Yrotation Zrotation
				JOINT rfoot
				{
					OFFSET -0.217767 -0.598312 1.596756
					CHANNELS 3 Xrotation Yrotation Zrotation
					JOINT rtoes
					{
						OFFSET -0.000000 -0.000000 0.857792
						CHANNELS 3 Xrotation Yrotation Zrotation
						End Site
						{
							OFFSET 0.000000 0.000000 0.000000
						}
					}
				}
			}
		}
	}
	JOINT lowerback
	{
		OFFSET 0.022119 2.076219 0.037763
		CHANNELS 3 Xrotation Yrotation Zrotation
		JOINT upperback
		{
			OFFSET -0.009486 2.080087 -0.001229
			CHANNELS 3 Xrotation Yrotation Zrotation
			JOINT thorax
			{
				OFFSET -0.018881 2.073796 -0.019159
				CHANNELS 3 Xrotation Yrotation Zrotation
				JOINT lowerneck
				{
					OFFSET 0.002881 1.671840 0.111548
					CHANNELS 3 Xrotation Yrotation Zrotation
					JOINT upperneck
					{
						OFFSET -0.024118 1.669967 -0.220395
						CHANNELS 3 Xrotation Yrotation Zrotation
						JOINT head
						{
							OFFSET -0.010264 1.690430 -0.086834
							CHANNELS 3 Xrotation Yrotation Zrotation
							End Site
							{
								OFFSET 0.000000 0.000000 0.000000
							}
						}
					}
				}
				JOINT lclavicle
				{
					OFFSET 3.979415 0.740477 0.814616
					CHANNELS 3 Xrotation Yrotation Zrotation
					JOINT lhumerus
					{
						OFFSET 5.018340 -0.000000 -0.000000
						CHANNELS 3 Xrotation Yrotation Zrotation
						JOINT lradius
						{
							OFFSET 3.486900 -0.000000 0.000000
							CHANNELS 3 Xrotation Yrotation Zrotation
							JOINT lwrist
							{
								OFFSET 1.743450 -0.000000 0.000000
								CHANNELS 3 Xrotation Yrotation Zrotation
								JOINT lhand
								{
									OFFSET 0.767990 -0.000000 0.000000
									CHANNELS 3 Xrotation Yrotation Zrotation
									JOINT lfingers
									{
										OFFSET 0.619174 -0.000000 0.000000
										CHANNELS 3 Xrotation Yrotation Zrotation
										End Site
										{
											OFFSET 0.000000 0.000000 0.000000
										}
									}
								}
								JOINT lthumb
								{
									OFFSET 0.628627 -0.000000 0.628627
									CHANNELS 3 Xrotation Yrotation Zrotation
									End Site
									{
										OFFSET 0.000000 0.000000 0.000000
									}
								}
							}
						}
					}
				}
				JOINT rclavicle
				{
					OFFSET -3.887025 1.021226 0.440911
					CHANNELS 3 Xrotation Yrotation Zrotation
					JOINT rhumerus
					{
						OFFSET -4.701640 -0.000000 0.000000
						CHANNELS 3 Xrotation Yrotation Zrotation
						JOINT rradius
						{
							OFFSET -3.499110 -0.000000 0.000000
							CHANNELS 3 Xrotation Yrotation Zrotation
							JOINT rwrist
							{
								OFFSET -1.749550 -0.000000 0.000000
								CHANNELS 3 Xrotation Yrotation Zrotation
								JOINT rhand
								{
									OFFSET -0.739335 -0.000000 0.000000
									CHANNELS 3 Xrotation Yrotation Zrotation
									JOINT rfingers
									{
										OFFSET -0.596071 -0.000000 0.000000
										CHANNELS 3 Xrotation Yrotation Zrotation
										End Site
										{
											OFFSET 0.000000 0.000000 0.000000
										}
									}
								}
								JOINT rthumb
								{
									OFFSET -0.605173 -0.000000 0.605173
									CHANNELS 3 Xrotation Yrotation Zrotation
									End Site
									{
										OFFSET 0.000000 0.000000 0.000000
									}
								}
							}
						}
					}
				}
			}
		}
	}
}
MOTION
Frames: 12
Frame Time: 0.016667
-12.551200 17.490000 -0.592794 92.515428 82.297229 -96.006351 0.000000 0.000000 0.000000 -5.289737 -0.051812 -14.599974 14.399564 5.171922 -0.653783 -23.637020 -8.203128 -1.696256 4.391428 1.596371 -0.061211 0.000000 0.000000 0.000000 -18.526158 8.306444 19.851906 9.083533 -3.288687 0.261309 -11.717445 -15.818021 -2.498170 -5.979255 2.171283 0.113412 -6.767274 0.070607 4.809733 -0.176831 0.450340 1.482250 3.641184 0.239003 -1.116126 -9.643710 -12.517083 -9.073657 15.433317 -16.782063 7.101539 6.529122 -8.787261 1.388046 0.000000 0.000000 0.000000 39.351586 -76.023472 -43.838684 92.378601 -53.697618 128.196130 -20.881800 0.000000 0.000000 0.000000 41.890300 8.326550 0.000000 0.000000 -7.125020 32.289697 66.414315 -42.715160 0.000000 0.000000 0.000000 8.840410 55.759230 94.830162 89.827894 54.805538 -125.053695 -5.375350 0.000000 0.000000 0.000000 11.225200 -26.769200 0.000000 0.000000 7.125020 -0.147217 -18.754273 -0.186733 
-12.658600 17.485100 -0.663619 89.879650 82.419736 -92.428052 0.000000 0.000000 0.000000 -6.039735 3.559718 -15.759301 13.159688 4.736912 -0.546698 -22.020638 -6.001133 -0.803103 14.224597 5.110711 -0.638103 0.000000 0.000000 0.000000 -19.124044 7.904986 18.487917 9.944542 -3.596640 0.313013 -12.384262 -15.036550 -2.628713 -5.080686 1.846157 0.081914 -6.486581 0.214411 4.243510 0.067717 0.589060 0.920812 3.742274 0.280861 -1.364684 -9.121610 -12.454106 -8.714985 14.416975 -16.646146 7.478890 6.160038 -8.684266 1.595872 0.000000 0.000000 0.000000 40.145163 -75.340086 -42.763887 92.637460 -53.576161 128.517583 -20.991300 0.000000 0.000000 0.000000 42.458400 7.865410 0.000000 0.000000 -7.125020 33.521479 66.641510 -44.272963 0.000000 0.000000 0.000000 9.317970 57.047783 93.068633 90.027889 54.724216 -125.298549 -6.513850 0.000000 0.000000 0.000000 9.663430 -28.143800 0.000000 0.000000 7.125020 -1.149496 -20.297002 -1.477094 
-12.759500 17.475600 -0.725114 86.680764 82.653769 -88.560627 0.000000 0.000000 0.000000 -5.905035 4.567499 -16.585463 12.784518 4.604728 -0.516147 -21.624654 -6.616589 -1.055688 16.202700 5.799128 -0.826169 0.000000 0.000000 0.000000 -19.707675 7.633437 17.540055 10.913609 -3.942021 0.376721 -12.573551 -14.228946 -2.601778 -7.374910 2.674897 0.172421 -6.171250 0.353698 3.855226 0.375592 0.734534 0.457761 3.890224 0.331604 -1.609250 -8.682735 -12.396034 -8.445123 13.449130 -16.538731 7.857597 5.824385 -8.597220 1.802017 0.000000 0.000000 0.000000 40.610694 -74.659746 -41.973430 92.746844 -53.524309 128.653570 -21.077000 0.000000 0.000000 0.000000 42.794100 7.184690 0.000000 0.000000 -7.125020 34.699542 66.540484 -45.878201 0.000000 0.000000 0.000000 9.880739 58.284907 91.258661 90.313244 54.606613 -125.648339 -7.637070 0.000000 0.000000 0.000000 8.111940 -29.290800 0.000000 0.000000 7.125020 -2.004681 -21.809249 -2.607164 
-12.852600 17.466500 -0.783064 84.408326 82.976253 -85.733030 0.000000 0.000000 0.000000 -5.493500 5.179342 -17.348933 12.158408 4.383588 -0.467087 -21.251000 -6.943229 -1.188639 17.213483 6.147670 -0.931361 0.000000 0.000000 0.000000 -20.075455 7.267526 16.698810 11.708486 -4.224272 0.433321 -12.776570 -13.529470 -2.582660 -8.349048 3.025248 0.220859 -5.962195 0.437573 3.679734 0.782978 0.826863 -0.056837 4.202093 0.349614 -2.029400 -8.301025 -12.187242 -8.364918 12.795894 -16.205988 8.579493 5.623644 -8.414654 2.129710 0.000000 0.000000 0.000000 41.074707 -73.918901 -41.048772 92.799137 -53.499408 128.718612 -21.180800 0.000000 0.000000 0.000000 43.070100 6.166070 0.000000 0.000000 -7.125020 36.116581 66.180519 -47.910511 0.000000 0.000000 0.000000 11.678106 60.534551 86.871274 91.000893 54.315454 -126.493398 -10.198000 0.000000 0.000000 0.000000 5.731690 -31.609200 0.000000 0.000000 7.125020 -3.770006 -24.042416 -4.986553 
-12.936400 17.457200 -0.829431 80.587488 83.156737 -81.383538 0.000000 0.000000 0.000000 -5.012696 5.678381 -18.095302 11.351024 4.097463 -0.407385 -20.921882 -7.040270 -1.228850 17.684267 6.309212 -0.982438 0.000000 0.000000 0.000000 -20.482959 7.045833 16.029847 12.413080 -4.473618 0.486751 -13.657734 -13.055737 -2.771254 -6.283291 2.281144 0.125222 -6.062912 0.571919 3.259923 1.218000 0.980832 -0.411242 4.716544 0.409954 -2.133518 -6.623062 -11.916046 -7.370214 9.955078 -15.854951 7.812386 4.481342 -8.135141 2.161212 0.000000 0.000000 0.000000 40.316644 -73.263181 -41.325760 92.802545 -53.497783 128.722852 -21.226400 0.000000 0.000000 0.000000 43.315900 4.551500 0.000000 0.000000 -7.125020 37.967483 65.411786 -50.715538 0.000000 0.000000 0.000000 10.591879 60.442002 87.900547 90.844216 54.382772 -126.300585 -10.073100 0.000000 0.000000 0.000000 5.339480 -31.684500 0.000000 0.000000 7.125020 -3.837848 -24.427540 -5.089452 
-13.016200 17.452500 -0.874091 78.051168 83.411871 -78.253431 0.000000 0.000000 0.000000 -4.441187 5.922391 -18.976748 10.593112 3.827944 -0.355006 -20.590291 -7.042412 -1.231510 17.535232 6.258129 -0.966126 0.000000 0.000000 0.000000 -20.713958 6.692657 15.249167 13.124776 -4.724622 0.543819 -15.252353 -12.713469 -3.171819 -2.362395 0.859534 0.017723 -5.630325 0.627458 2.542112 1.340316 0.996693 -0.588263 4.589181 0.424984 -1.915280 -3.857713 -11.563139 -6.499506 6.011677 -15.386434 7.007062 3.162229 -7.781834 2.571296 0.000000 0.000000 0.000000 38.915133 -72.713837 -42.850234 92.774137 -53.511322 128.687515 -21.076400 0.000000 0.000000 0.000000 43.544200 2.825340 0.000000 0.000000 -7.125020 39.712488 64.512502 -53.477244 0.000000 0.000000 0.000000 10.413305 60.346583 88.035317 90.522883 54.519022 -125.905643 -10.175300 0.000000 0.000000 0.000000 4.813470 -31.623600 0.000000 0.000000 7.125020 -3.808395 -24.957450 -5.067485 
-13.095000 17.446800 -0.918897 75.171691 83.611271 -74.811841 0.000000 0.000000 0.000000 -3.919603 5.921161 -19.898910 9.869826 3.569956 -0.308344 -20.361509 -6.690143 -1.101468 16.210675 5.801887 -0.826975 0.000000 0.000000 0.000000 -21.074612 6.177537 14.464502 13.921919 -5.004682 0.611420 -16.352377 -12.397932 -3.435012 -0.256478 0.093350 0.000209 -5.233460 0.668011 1.928572 1.444619 1.007732 -0.791014 4.465110 0.434210 -1.782579 -5.041855 -12.052792 -6.035135 6.621351 -16.137519 5.517497 3.407622 -8.157275 1.798644 0.000000 0.000000 0.000000 38.303514 -72.297876 -43.676981 92.686497 -53.552954 128.578535 -20.965300 0.000000 0.000000 0.000000 43.732100 2.594400 0.000000 0.000000 -7.125020 40.143488 64.509026 -54.067263 0.000000 0.000000 0.000000 10.293678 60.302525 88.145481 90.164727 54.668053 -125.466223 -10.225000 0.000000 0.000000 0.000000 4.236740 -31.689800 0.000000 0.000000 7.125020 -3.876350 -25.527421 -5.176539 
-13.160200 17.432400 -0.956097 72.930447 84.077418 -71.866225 0.000000 0.000000 0.000000 -3.083127 5.703247 -21.047087 9.119840 3.301692 -0.263396 -20.121015 -6.266879 -0.949218 14.885044 5.341447 -0.698261 0.000000 0.000000 0.000000 -21.060123 5.420555 13.416594 14.609435 -5.245264 0.672835 -16.543207 -12.221878 -3.459070 -1.175963 0.427977 0.004392 -4.766112 0.667532 1.125210 1.643678 0.959853 -1.037607 4.395638 0.415678 -1.594341 -5.272401 -12.198892 -5.820269 6.752219 -16.351965 5.002032 3.433727 -8.264273 1.546313 0.000000 0.000000 0.000000 38.224193 -71.934797 -44.055400 92.589496 -53.598797 128.457984 -20.698500 0.000000 0.000000 0.000000 43.704200 2.979200 0.000000 0.000000 -7.125020 39.807647 64.733359 -53.507599 0.000000 0.000000 0.000000 10.393233 60.286057 88.192236 89.897945 54.777156 -125.139431 -9.896390 0.000000 0.000000 0.000000 3.688940 -31.882200 0.000000 0.000000 7.125020 -4.039714 -26.057307 -5.412717 
-13.231000 17.433000 -0.987157 70.543868 83.943329 -69.758474 0.000000 0.000000 0.000000 -3.146449 5.294612 -20.927691 8.622675 3.123466 -0.235534 -19.918210 -5.603351 -0.715172 14.227723 5.111805 -0.638382 0.000000 0.000000 0.000000 -21.850111 4.607581 13.692360 15.625866 -5.599217 0.768885 -16.571891 -12.135005 -3.451886 -1.712789 0.623287 0.009317 -4.771371 0.654551 1.324964 1.646445 0.950958 -1.002700 4.404141 0.409570 -1.671506 -5.192672 -12.062535 -5.894083 6.906911 -16.153661 5.112115 3.484658 -8.171546 1.602002 0.000000 0.000000 0.000000 38.019231 -71.504505 -44.684645 92.367103 -53.702972 128.181864 -20.778000 0.000000 0.000000 0.000000 40.892200 3.699310 0.000000 0.000000 -7.125020 35.706704 62.954808 -48.602058 0.000000 0.000000 0.000000 10.617147 60.316730 87.951309 89.607110 54.894273 -124.783671 -9.535200 0.000000 0.000000 0.000000 2.995100 -31.927600 0.000000 0.000000 7.125020 -4.098636 -26.745404 -5.514006 
-13.302300 17.435600 -1.016540 69.342266 83.863864 -68.658708 0.000000 0.000000 0.000000 -3.335414 4.874072 -21.010302 8.389022 3.039602 -0.222974 -19.752413 -5.049236 -0.525384 13.755564 4.946334 -0.596992 0.000000 0.000000 0.000000 -22.578412 3.712300 13.717353 16.844170 -6.020588 0.892218 -16.478538 -11.756087 -3.357960 -1.225205 0.445895 0.004768 -4.701108 0.608455 1.354301 1.633922 0.889581 -1.010396 4.350388 0.378721 -1.703853 -5.121939 -11.948982 -5.942364 7.016537 -15.989730 5.161080 3.516566 -8.094486 1.634113 0.000000 0.000000 0.000000 37.630575 -71.061992 -45.557776 92.406180 -53.684760 128.230355 -20.860000 0.000000 0.000000 0.000000 39.014400 4.122740 0.000000 0.000000 -7.125020 33.310009 61.656967 -45.710695 0.000000 0.000000 0.000000 10.803376 60.263515 87.770299 89.370188 54.988293 -124.494235 -9.294460 0.000000 0.000000 0.000000 2.311410 -31.889200 0.000000 0.000000 7.125020 -4.094304 -27.430781 -5.529326 
-13.366800 17.440700 -1.041660 68.529884 83.817782 -67.978420 0.000000 0.000000 0.000000 -3.618592 4.677951 -20.997877 8.383179 3.037504 -0.222664 -19.697538 -4.729539 -0.416624 13.653796 4.910613 -0.588248 0.000000 0.000000 0.000000 -23.146791 3.064114 13.821639 18.104140 -6.452844 1.029103 -16.456794 -11.238322 -3.258507 -0.835795 0.304191 0.002219 -4.668156 0.590422 1.408581 1.631585 0.867398 -1.018950 4.329654 0.366696 -1.746073 -5.059376 -11.895797 -5.949889 7.134183 -15.906380 5.161680 3.545449 -8.057459 1.636349 0.000000 0.000000 0.000000 36.779527 -70.680012 -46.652104 92.724084 -53.535124 128.625267 -20.066200 0.000000 0.000000 0.000000 43.901800 3.128790 0.000000 0.000000 -7.125020 39.959783 64.980117 -53.602480 0.000000 0.000000 0.000000 10.912383 60.034097 87.799584 89.250585 55.035289 -124.348248 -9.099790 0.000000 0.000000 0.000000 1.699640 -31.817600 0.000000 0.000000 7.125020 -4.062303 -28.047324 -5.504189 
-13.430200 17.451000 -1.065420 67.987087 83.636002 -67.715684 0.000000 0.000000 0.000000 -4.198676 4.630427 -20.740998 8.639885 3.129641 -0.236473 -19.758788 -4.579946 -0.362480 14.441439 5.186563 -0.657563 0.000000 0.000000 0.000000 -23.814255 2.750233 14.204822 19.510039 -6.930637 1.192938 -16.713311 -10.678528 -3.223302 -0.189635 0.069021 0.000114 -4.751077 0.579698 1.691729 1.589371 0.868149 -1.015411 4.336998 0.361834 -1.901196 -5.036214 -11.833163 -6.019076 7.295007 -15.812006 5.222300 3.603274 -8.016256 1.663443 0.000000 0.000000 0.000000 36.562155 -70.505864 -47.011947 92.634036 -53.577779 128.513328 -20.369800 0.000000 0.000000 0.000000 44.158900 3.956950 0.000000 0.000000 -7.125020 39.643441 65.700650 -52.846694 0.000000 0.000000 0.000000 11.036237 59.787742 87.859925 89.228120 55.044082 -124.320837 -8.925400 0.000000 0.000000 0.000000 1.074010 -31.764900 0.000000 0.000000 7.125020 -4.045514 -28.676106 -5.499221 
